# xmcd CD database file
#
# Track frame offsets:
#	150
#	17435
#	42377
#	59645
#
# Disc length: 1125 seconds
#
# Revision: 0
# Processed by: cddbd v1.5.1PL0 Copyright (c) Steve Scherf et al.
# Submitted via: CDex 1.51
#
DISCID=2e046304
DTITLE=佐藤朱美 - 夜が明ける前に
DYEAR=1996
DGENRE=アニメ
TTITLE0=夜が明ける前に
TTITLE1=Everything For You
TTITLE2=夜が明ける前に(Off Vocal)
TTITLE3=Everything For You(Off Vocal)
EXTD=YEAR: 1996
EXTT0=
EXTT1=
EXTT2=
EXTT3=
PLAYORDER=
